# xmcd
#
# Track frame offsets:
# 150
# 16499
# 31584
# 44551
# 68978
# 79585
# 95292
# 111399
# 125549
# 140142
# 156237
#
# Disc length: 2549 seconds
#
#
# Revision: 0
# Processed by: cddbd v1.5.1PL2 Copyright (c) Steve Scherf et al.
# Submitted via: FreeRIP 2.931 
#
DISCID=9309f30b
DTITLE=Haynes Boys - Guardian Angel
DYEAR=1996
DGENRE=Country
TTITLE0=Jackie
TTITLE1=Anybody
TTITLE2=Guardian Angel
TTITLE3=Hell on Earth
TTITLE4=The New Franklin County Woman
TTITLE5=Bitters Past
TTITLE6=One Last Question
TTITLE7=Murder, Murder
TTITLE8=Maryhaven Family
TTITLE9=Goody Boy
TTITLE10=The Lonesomes
EXTD=
EXTT0=
EXTT1=
EXTT2=
EXTT3=
EXTT4=
EXTT5=
EXTT6=
EXTT7=
EXTT8=
EXTT9=
EXTT10=
PLAYORDER=
